<svg xmlns="http://www.w3.org/2000/svg" version="1.1" xmlns:xlink="http://www.w3.org/1999/xlink" xmlns:svgjs="http://svgjs.dev/svgjs" width="1500" height="1500" viewBox="0 0 1500 1500"><rect width="1500" height="1500" fill="#ffffff"></rect><g transform="matrix(0.6666666666666666,0,0,0.6666666666666666,250.88393442622947,244.40971659919023)"><svg viewBox="0 0 244 247" data-background-color="#ffffff" preserveAspectRatio="xMidYMid meet" height="1518" width="1500" xmlns="http://www.w3.org/2000/svg" xmlns:xlink="http://www.w3.org/1999/xlink"><g id="tight-bounds" transform="matrix(1,0,0,1,-0.21567999999999188,-0.09999999999999432)"><svg viewBox="0 0 244.43135999999998 247.2" height="247.2" width="244.43135999999998"><g><svg></svg></g><g><svg viewBox="0 0 244.43135999999998 247.2" height="247.2" width="244.43135999999998"><g transform="matrix(1,0,0,1,0,108.61921030663474)"><svg viewBox="0 0 244.43135999999998 29.961579386730516" height="29.961579386730516" width="244.43135999999998"><g><svg viewBox="0 0 244.43135999999998 29.961579386730516" height="29.961579386730516" width="244.43135999999998"><g><svg viewBox="0 0 244.43135999999998 29.961579386730516" height="29.961579386730516" width="244.43135999999998"><g><svg viewBox="0 0 244.43135999999998 29.961579386730516" height="29.961579386730516" width="244.43135999999998"><g id="textblocktransform"><svg viewBox="0 0 244.43135999999998 29.961579386730516" height="29.961579386730516" width="244.43135999999998" id="textblock"><g><svg viewBox="0 0 244.43135999999998 29.961579386730516" height="29.961579386730516" width="244.43135999999998"><g transform="matrix(1,0,0,1,0,0)"><svg width="244.43135999999998" viewBox="4.91 -38.26 316.04999999999995 38.75" height="29.961579386730516" data-palette-color="#0063db"><path d="M24.05 0L20.7 0 8.59-31.64 8.4-31.64Q8.74-27.88 8.74-22.71L8.74-22.71 8.74 0 4.91 0 4.91-35.69 11.16-35.69 22.46-6.25 22.66-6.25 34.06-35.69 40.26-35.69 40.26 0 36.11 0 36.11-23Q36.11-26.95 36.45-31.59L36.45-31.59 36.25-31.59 24.05 0ZM62.28-12.74L70.43-35.69 74.9-35.69 62.03 0 57.93 0 45.14-35.69 49.53-35.69 57.74-12.6Q59.15-8.62 59.98-4.86L59.98-4.86Q60.86-8.81 62.28-12.74L62.28-12.74ZM78.14-35.69L82.69-35.69 81.71-22.8 79.15-22.8 78.14-35.69ZM107.51-7.3L107.51-7.3Q107.51-3.56 104.73-1.54 101.95 0.49 96.92 0.49L96.92 0.49Q91.59 0.49 88.62-1.2L88.62-1.2 88.62-4.96Q90.54-3.98 92.75-3.42 94.96-2.86 97.01-2.86L97.01-2.86Q100.19-2.86 101.9-3.87 103.61-4.88 103.61-6.96L103.61-6.96Q103.61-8.52 102.25-9.63 100.9-10.74 96.97-12.26L96.97-12.26Q93.23-13.65 91.66-14.69 90.08-15.72 89.31-17.04 88.54-18.36 88.54-20.19L88.54-20.19Q88.54-23.46 91.2-25.35 93.86-27.25 98.5-27.25L98.5-27.25Q102.82-27.25 106.95-25.49L106.95-25.49 105.51-22.19Q101.48-23.85 98.21-23.85L98.21-23.85Q95.33-23.85 93.86-22.95 92.4-22.05 92.4-20.46L92.4-20.46Q92.4-19.38 92.95-18.63 93.5-17.87 94.72-17.19 95.94-16.5 99.41-15.21L99.41-15.21Q104.17-13.48 105.84-11.72 107.51-9.96 107.51-7.3ZM150.33-25.29L150.33-25.29Q150.33-19.87 146.63-16.96 142.93-14.04 136.05-14.04L136.05-14.04 131.85-14.04 131.85 0 127.7 0 127.7-35.69 136.95-35.69Q150.33-35.69 150.33-25.29ZM131.85-32.1L131.85-17.6 135.58-17.6Q141.1-17.6 143.57-19.38 146.03-21.17 146.03-25.1L146.03-25.1Q146.03-28.64 143.71-30.37 141.39-32.1 136.49-32.1L136.49-32.1 131.85-32.1ZM180.28-13.4L180.28-13.4Q180.28-6.86 176.99-3.19 173.69 0.49 167.88 0.49L167.88 0.49Q164.29 0.49 161.51-1.2 158.73-2.88 157.21-6.03 155.7-9.18 155.7-13.4L155.7-13.4Q155.7-19.95 158.97-23.6 162.24-27.25 168.05-27.25L168.05-27.25Q173.67-27.25 176.97-23.51 180.28-19.78 180.28-13.4ZM159.9-13.4L159.9-13.4Q159.9-8.28 161.95-5.59 164-2.91 167.98-2.91L167.98-2.91Q171.96-2.91 174.02-5.58 176.08-8.25 176.08-13.4L176.08-13.4Q176.08-18.51 174.02-21.15 171.96-23.8 167.93-23.8L167.93-23.8Q163.95-23.8 161.92-21.19 159.9-18.58 159.9-13.4ZM199.59-27.25L199.59-27.25Q201.37-27.25 202.79-26.95L202.79-26.95 202.23-23.19Q200.57-23.56 199.3-23.56L199.3-23.56Q196.05-23.56 193.74-20.92 191.44-18.29 191.44-14.36L191.44-14.36 191.44 0 187.38 0 187.38-26.76 190.73-26.76 191.19-21.8 191.39-21.8Q192.88-24.41 194.98-25.83 197.08-27.25 199.59-27.25ZM216.44-2.86L216.44-2.86Q217.51-2.86 218.51-3.02 219.51-3.17 220.1-3.34L220.1-3.34 220.1-0.24Q219.44 0.07 218.16 0.28 216.87 0.49 215.85 0.49L215.85 0.49Q208.09 0.49 208.09-7.69L208.09-7.69 208.09-23.61 204.25-23.61 204.25-25.56 208.09-27.25 209.79-32.96 212.14-32.96 212.14-26.76 219.9-26.76 219.9-23.61 212.14-23.61 212.14-7.86Q212.14-5.44 213.29-4.15 214.43-2.86 216.44-2.86ZM237.5-26.76L237.5-23.61 230.69-23.61 230.69 0 226.64 0 226.64-23.61 221.85-23.61 221.85-25.44 226.64-26.9 226.64-28.39Q226.64-38.26 235.26-38.26L235.26-38.26Q237.38-38.26 240.24-37.4L240.24-37.4 239.19-34.16Q236.84-34.91 235.18-34.91L235.18-34.91Q232.89-34.91 231.79-33.39 230.69-31.86 230.69-28.49L230.69-28.49 230.69-26.76 237.5-26.76ZM265.48-13.4L265.48-13.4Q265.48-6.86 262.18-3.19 258.89 0.49 253.08 0.49L253.08 0.49Q249.49 0.49 246.7-1.2 243.92-2.88 242.41-6.03 240.89-9.18 240.89-13.4L240.89-13.4Q240.89-19.95 244.16-23.6 247.44-27.25 253.25-27.25L253.25-27.25Q258.86-27.25 262.17-23.51 265.48-19.78 265.48-13.4ZM245.09-13.4L245.09-13.4Q245.09-8.28 247.14-5.59 249.19-2.91 253.17-2.91L253.17-2.91Q257.15-2.91 259.22-5.58 261.28-8.25 261.28-13.4L261.28-13.4Q261.28-18.51 259.22-21.15 257.15-23.8 253.12-23.8L253.12-23.8Q249.14-23.8 247.12-21.19 245.09-18.58 245.09-13.4ZM276.63-37.99L276.63 0 272.58 0 272.58-37.99 276.63-37.99ZM289.28-26.76L289.28 0 285.22 0 285.22-26.76 289.28-26.76ZM284.88-34.01L284.88-34.01Q284.88-35.4 285.57-36.05 286.25-36.69 287.27-36.69L287.27-36.69Q288.25-36.69 288.96-36.04 289.67-35.38 289.67-34.01L289.67-34.01Q289.67-32.64 288.96-31.97 288.25-31.3 287.27-31.3L287.27-31.3Q286.25-31.3 285.57-31.97 284.88-32.64 284.88-34.01ZM320.96-13.4L320.96-13.4Q320.96-6.86 317.67-3.19 314.37 0.49 308.56 0.49L308.56 0.49Q304.97 0.49 302.19-1.2 299.41-2.88 297.89-6.03 296.38-9.18 296.38-13.4L296.38-13.4Q296.38-19.95 299.65-23.6 302.92-27.25 308.73-27.25L308.73-27.25Q314.35-27.25 317.66-23.51 320.96-19.78 320.96-13.4ZM300.58-13.4L300.58-13.4Q300.58-8.28 302.63-5.59 304.68-2.91 308.66-2.91L308.66-2.91Q312.64-2.91 314.7-5.58 316.76-8.25 316.76-13.4L316.76-13.4Q316.76-18.51 314.7-21.15 312.64-23.8 308.61-23.8L308.61-23.8Q304.63-23.8 302.6-21.19 300.58-18.58 300.58-13.4Z" opacity="1" transform="matrix(1,0,0,1,0,0)" fill="#000000" class="wordmark-text-0" data-fill-palette-color="primary" id="text-0"></path></svg></g></svg></g></svg></g></svg></g><g></g></svg></g></svg></g></svg></g><path d="M0 102.619L0 1 244.431 1 244.431 102.619 241.729 102.619 241.729 3.702 2.702 3.702 2.702 102.619 0 102.619M0 144.581L0 246.2 244.431 246.2 244.431 144.581 241.729 144.581 241.729 243.498 2.702 243.498 2.702 144.581 0 144.581" fill="#000000" stroke="transparent" data-fill-palette-color="primary"></path></svg></g><defs></defs></svg><rect width="244.43135999999998" height="247.2" fill="none" stroke="none" visibility="hidden"></rect></g></svg></g></svg>